<?xml version="1.0" encoding="UTF-8"?>
<svg id="Layer_2" data-name="Layer 2" xmlns="http://www.w3.org/2000/svg" viewBox="0 0 4972.46 4876.09">
  <defs>
    <style>
      .cls-1 {
        opacity: .12;
      }

      .cls-2 {
        fill: #d8d8d8;
      }
    </style>
  </defs>
  <g id="Object">
    <g id="Group_201" data-name="Group 201" class="cls-1">
      <path id="Path_144" data-name="Path 144" class="cls-2" d="m301.2,2938.22c.88-19.85,7.41-39.03,18.81-55.3L2152.56,261.8c15.92-22.88,40.32-38.45,67.78-43.25,27.45-4.95,55.74,1.25,78.59,17.23l2628.51,1828.31c29.7,20.67,46.49,54.56,44.91,90.68-.88,19.85-7.41,39.04-18.81,55.31l-1832.56,2621.11c-16.05,22.97-40.11,38.32-67.76,43.24-27.45,4.96-55.75-1.24-78.6-17.23L346.13,3028.88c-29.7-20.65-46.51-54.55-44.93-90.67Zm4662.74-783.82c1.46-33.23-14-64.42-41.32-83.42L2294.12,242.67c-21.03-14.71-47.05-20.42-72.3-15.86-25.43,4.52-47.58,18.64-62.34,39.79L326.9,2887.71c-10.49,14.96-16.49,32.61-17.29,50.87-1.45,33.24,14,64.42,41.32,83.44l2628.51,1828.3c21.03,14.71,47.06,20.42,72.31,15.86,25.42-4.54,47.58-18.64,62.34-39.79l1832.56-2621.11c10.5-14.96,16.5-32.62,17.29-50.88Z"/>
      <path id="Path_145" data-name="Path 145" class="cls-2" d="m287.19,2836.8c.86-19.81,7.5-38.93,19.09-55.02L2125.05,249.63c15.82-22.12,39.81-37.01,66.66-41.35,26.84-4.49,54.36,1.91,76.47,17.78l2539.31,1814.54c45.93,32.71,56.64,96.45,23.94,142.38-.09.13-.18.26-.27.38l-1818.77,2532.15c-32.93,45.86-97.15,56.43-143.13,23.57L329.94,2924.54c-28.23-20.09-44.33-53.13-42.75-87.75Zm4554.65-708.84c1.45-31.77-13.33-62.11-39.25-80.55L2263.28,232.89c-20.28-14.59-45.55-20.47-70.19-16.34-24.65,3.98-46.69,17.65-61.21,37.96L313.12,2786.67c-10.64,14.77-16.73,32.32-17.53,50.51-1.45,31.77,13.33,62.11,39.26,80.54l2539.31,1814.55c42.23,30.14,101.17,20.46,131.39-21.63l1818.76-2532.17c10.65-14.77,16.74-32.32,17.53-50.51Z"/>
      <path id="Path_146" data-name="Path 146" class="cls-2" d="m273.15,2735.4c.85-19.78,7.62-38.84,19.42-54.74L2097.53,237.46c32.73-44.3,95.49-53.77,139.9-21.12l2450.11,1800.76c44.37,32.53,53.97,94.87,21.44,139.24-.08.1-.15.21-.23.31l-1804.97,2443.2c-32.87,44.36-95.41,53.81-139.91,21.12L313.77,2820.2c-26.86-19.7-42.1-51.52-40.62-84.8Zm4446.61-633.89c1.35-30.48-12.61-59.61-37.2-77.67L2232.45,223.09c-40.68-29.9-98.17-21.22-128.15,19.34L299.34,2685.63c-10.81,14.57-17,32.04-17.79,50.16-1.36,30.47,12.6,59.61,37.21,77.65l2450.09,1800.77c40.76,29.94,98.06,21.29,128.17-19.35l1804.96-2443.21c10.81-14.56,17-32.03,17.79-50.14Z"/>
      <path id="Path_147" data-name="Path 147" class="cls-2" d="m259.09,2634.02c.84-19.76,7.74-38.78,19.75-54.48L2070.02,225.3c15.61-20.62,38.82-34.14,64.45-37.57,25.63-3.57,51.62,3.23,72.22,18.9l2360.91,1786.99c42.8,32.3,51.3,93.19,19,135.98-.08.11-.17.22-.25.33l-1791.18,2354.24c-32.52,42.71-93.83,51.11-136.67,18.67L297.59,2715.84c-25.5-19.29-39.9-49.88-38.5-81.82Zm4338.61-558.95c1.26-29.19-11.89-57.14-35.19-74.78L2201.61,213.31c-18.82-14.32-42.58-20.53-66-17.27-23.42,3.13-44.63,15.49-58.88,34.33L285.53,2584.61c-10.97,14.36-17.27,31.73-18.05,49.78-1.27,29.19,11.88,57.14,35.17,74.77l2360.93,1786.98c39.14,29.61,95.16,21.98,124.88-17.05l1791.19-2354.24c10.97-14.36,17.27-31.74,18.05-49.79Z"/>
      <path id="Path_148" data-name="Path 148" class="cls-2" d="m245.01,2532.61c.85-19.74,7.88-38.71,20.11-54.22L2042.51,213.13c15.51-19.86,38.31-32.71,63.34-35.67,25.03-3.12,50.26,3.89,70.1,19.46l2271.69,1773.2c41.24,32.12,48.64,91.59,16.52,132.84-.07.09-.14.17-.2.26l-1777.4,2265.27c-32.42,41.23-92.08,48.48-133.44,16.22L281.4,2611.5c-24.14-18.89-37.69-48.27-36.39-78.9Zm4230.63-483.98c1.2-27.92-11.16-54.7-33.17-71.9L2170.76,203.52c-18.08-14.19-41.08-20.57-63.89-17.73-22.82,2.7-43.61,14.41-57.75,32.51L271.74,2483.58c-11.15,14.13-17.57,31.42-18.33,49.4-1.19,27.92,11.16,54.69,33.17,71.9l2271.7,1773.21c37.7,29.41,92.09,22.8,121.65-14.79l1777.38-2265.27c11.15-14.13,17.57-31.42,18.32-49.41Z"/>
      <path id="Path_149" data-name="Path 149" class="cls-2" d="m230.91,2431.22c.83-19.72,8.01-38.65,20.49-53.94L2015,200.96c32.08-39.6,90.49-45.76,130.21-13.76l2182.52,1759.45c22.8,18.45,35.52,46.6,34.3,75.9-.83,19.72-8.02,38.65-20.48,53.96l-1763.61,2176.3c-32.2,39.68-90.42,45.83-130.2,13.76L265.22,2507.13c-22.81-18.44-35.54-46.6-34.31-75.91Zm4122.7-409.04c1.11-26.65-10.46-52.25-31.19-69.02L2139.91,193.72c-36.1-29.1-89.21-23.49-118.37,12.5L257.93,2382.56c-11.33,13.9-17.87,31.1-18.63,49.02-1.11,26.65,10.46,52.25,31.2,69.02l2182.5,1759.43c36.16,29.16,89.1,23.58,118.37-12.5l1763.61-2176.32c11.34-13.9,17.87-31.11,18.62-49.04Z"/>
      <path id="Path_150" data-name="Path 150" class="cls-2" d="m216.8,2329.8c.81-19.71,8.16-38.59,20.88-53.66L1987.49,188.79c15.31-18.36,37.32-29.83,61.14-31.87,23.81-2.19,47.51,5.22,65.84,20.58l2093.3,1745.65c21.73,18.12,33.47,44.7,32.25,72.96-.81,19.72-8.17,38.6-20.91,53.67l-1749.8,2087.36c-31.88,38.03-88.84,43.08-126.97,11.3L249.03,2402.79c-21.73-18.12-33.48-44.72-32.24-72.99Zm4014.81-334.07c1.13-25.6-9.53-49.71-29.23-66.14L2109.07,183.93c-16.62-13.92-38.11-20.64-59.7-18.66-21.59,1.85-41.55,12.26-55.43,28.9L244.14,2281.53c-11.54,13.66-18.21,30.78-18.94,48.65-1.2,25.42,9.63,49.93,29.24,66.16l2093.31,1745.67c34.58,28.84,86.21,24.24,115.11-10.24l1749.81-2087.35c11.54-13.67,18.21-30.79,18.94-48.67Z"/>
      <path id="Path_151" data-name="Path 151" class="cls-2" d="m202.64,2228.42c.81-19.71,8.34-38.56,21.34-53.4L1959.99,176.61c15.21-17.6,36.83-28.39,60.04-29.97,23.21-1.72,46.14,5.89,63.7,21.15l2004.1,1731.87c36.53,31.5,40.6,86.65,9.1,123.18-.07.08-.15.17-.22.25l-1736.03,1998.38c-31.76,36.54-87.1,40.48-123.72,8.82L232.84,2298.41c-20.3-17.45-31.43-43.26-30.2-69.99Zm3907-259.11c1.12-24.18-8.95-47.52-27.3-63.3L2078.22,174.14c-15.88-13.81-36.62-20.7-57.6-19.13-20.98,1.43-40.52,11.18-54.28,27.09L230.34,2180.49c-11.76,13.42-18.57,30.46-19.29,48.29-1.12,24.17,8.95,47.52,27.3,63.3l2004.1,1731.88c33.13,28.6,83.14,25.04,111.88-7.96l1736.01-1998.41c11.76-13.41,18.58-30.46,19.3-48.28Z"/>
      <path id="Path_152" data-name="Path 152" class="cls-2" d="m188.46,2127.02c.89-19.71,8.6-38.5,21.81-53.15L1932.49,164.43c15.12-16.84,36.33-26.94,58.94-28.06,22.6-1.25,44.76,6.56,61.57,21.72l1914.91,1718.11c34.94,31.3,37.89,85,6.59,119.94-.07.08-.14.16-.21.24l-1722.22,1909.45c-31.57,34.93-85.44,37.76-120.49,6.32L216.65,2194.03c-18.99-16.97-29.34-41.57-28.19-67Zm3799.22-184.17c1.04-22.94-8.29-45.13-25.41-60.43L2047.36,164.32c-15.15-13.66-35.12-20.71-55.49-19.57-20.37,1-39.5,10.11-53.12,25.29L216.52,2079.48c-11.91,13.21-18.86,30.14-19.66,47.91-1.03,22.93,8.3,45.11,25.41,60.42l1914.91,1718.12c31.6,28.33,80.16,25.78,108.62-5.7l1722.21-1909.45c11.92-13.2,18.87-30.14,19.66-47.91Z"/>
      <path id="Path_153" data-name="Path 153" class="cls-2" d="m174.26,2025.63c.88-19.73,8.79-38.49,22.3-52.89L1904.99,152.25c15.02-16.08,35.83-25.5,57.82-26.15,21.99-.79,43.39,7.24,59.44,22.3l1825.71,1704.33c33.37,31.09,35.21,83.35,4.11,116.71-.07.08-.15.16-.22.23l-1708.44,1820.48c-31.26,33.3-83.87,35.03-117.26,3.84L200.45,2089.68c-17.68-16.49-27.25-39.9-26.19-64.05Zm3691.51-109.22c.96-21.71-7.65-42.75-23.55-57.57L2016.52,154.52c-14.42-13.53-33.65-20.75-53.41-20.04-19.77.6-38.48,9.05-51.98,23.5L202.71,1978.46c-12.15,12.94-19.26,29.8-20.05,47.52-.95,21.71,7.64,42.74,23.53,57.57l1825.72,1704.31c30,28.03,77.29,26.48,105.37-3.45l1708.44-1820.48c12.15-12.94,19.26-29.8,20.05-47.53Z"/>
      <path id="Path_154" data-name="Path 154" class="cls-2" d="m160.02,1924.2c.86-19.76,9-38.5,22.84-52.62L1877.51,140.06c31.05-31.72,82.2-32.34,114.01-1.36l1736.52,1690.55c31.78,30.91,32.5,81.72,1.59,113.51-.07.07-.14.14-.21.21l-1694.64,1731.51c-31.04,31.73-82.19,32.35-114.02,1.37L184.26,1985.28c-16.41-15.98-25.23-38.2-24.24-61.08Zm3583.85-34.23c.88-20.49-7.01-40.39-21.7-54.7L1985.66,144.7c-28.51-27.74-74.33-27.19-102.14,1.23L188.88,1877.45c-12.41,12.64-19.69,29.43-20.46,47.12-.89,20.5,7.01,40.41,21.71,54.72l1736.5,1690.57c28.52,27.73,74.32,27.16,102.13-1.24l1694.64-1731.51c12.4-12.65,19.69-29.44,20.47-47.15Z"/>
      <path id="Path_155" data-name="Path 155" class="cls-2" d="m145.74,1822.81c.86-19.81,9.24-38.54,23.44-52.38L1850.02,127.87c30.86-30.14,80.55-29.63,110.78,1.14l1647.32,1676.78c30.2,30.7,29.79,80.07-.91,110.27-.07.07-.14.14-.22.21l-1680.84,1642.56c-30.84,30.14-80.55,29.63-110.78-1.14L168.05,1880.92c-15.14-15.46-23.22-36.5-22.32-58.12Zm3476.28,40.72c.82-19.29-6.39-38.06-19.91-51.85L1954.8,134.88c-27-27.46-71.35-27.92-98.89-1.02L175.06,1776.42c-12.68,12.35-20.16,29.08-20.92,46.76-.8,19.3,6.41,38.06,19.93,51.86l1647.29,1676.8c27,27.46,71.35,27.91,98.9.98l1680.85-1642.53c12.68-12.35,20.16-29.08,20.91-46.76Z"/>
      <path id="Path_156" data-name="Path 156" class="cls-2" d="m131.43,1721.4c.82-19.86,9.47-38.59,24.05-52.1L1822.54,115.69c14.73-13.8,34.36-21.14,54.53-20.38,20.17.63,39.25,9.28,53.02,24.03l1558.1,1663c28.61,30.49,27.09,78.39-3.39,107.01-.08.08-.17.16-.25.24l-1667.05,1553.6c-30.63,28.54-78.88,26.92-107.52-3.64L151.85,1776.53c-14-14.85-21.37-34.75-20.42-55.14Zm3368.78,115.7c.85-18.13-5.72-35.83-18.18-49.03L1923.92,125.07c-12.23-13.13-29.2-20.82-47.13-21.38-17.94-.66-35.4,5.87-48.5,18.13L161.24,1675.41c-12.98,12.03-20.67,28.7-21.41,46.37-.84,18.13,5.71,35.82,18.16,49.03l1558.12,1663c25.48,27.19,68.38,28.63,95.64,3.24l1667.05-1553.59c12.97-12.02,20.66-28.69,21.4-46.36Z"/>
      <path id="Path_157" data-name="Path 157" class="cls-2" d="m117.07,1620c.81-19.94,9.76-38.68,24.75-51.86L1795.07,103.49c30.44-26.96,77.22-24.19,104.28,6.17l1468.92,1649.24c27.02,30.32,24.34,76.8-5.98,103.82-.06.06-.13.11-.19.17l-1653.26,1464.66c-30.46,26.94-77.24,24.18-104.3-6.2L135.65,1672.15c-12.78-14.28-19.45-33-18.58-52.15Zm3261.36,190.65c.78-16.96-5.13-33.54-16.45-46.19L1893.06,115.24c-23.98-26.91-65.43-29.37-92.41-5.48L147.39,1574.41c-13.29,11.67-21.21,28.28-21.92,45.96-.77,16.96,5.14,33.55,16.46,46.19l1468.91,1649.23c23.98,26.92,65.41,29.38,92.41,5.46l1653.25-1464.64c13.29-11.68,21.21-28.29,21.92-45.97h0Z"/>
      <path id="Path_158" data-name="Path 158" class="cls-2" d="m102.67,1518.6c.9-20.01,10.13-38.72,25.46-51.61L1767.6,91.3c14.54-12.26,33.38-18.2,52.32-16.52,18.95,1.57,36.48,10.65,48.71,25.21l1379.71,1635.45c25.43,30.12,21.64,75.15-8.48,100.58-.07.06-.14.12-.21.18l-1639.48,1375.67c-30.25,25.38-75.57,21.48-101.02-8.69L119.45,1567.73c-11.58-13.68-17.57-31.22-16.78-49.13Zm3154.05,265.62c.7-15.81-4.59-31.29-14.8-43.37L1862.2,105.4c-10.78-12.86-26.26-20.87-42.99-22.25-16.72-1.5-33.35,3.75-46.19,14.57L133.55,1473.42c-13.53,11.37-21.68,27.89-22.47,45.55-.7,15.81,4.58,31.29,14.8,43.38l1379.72,1635.45c22.46,26.62,62.48,30.06,89.18,7.66l1639.47-1375.67c13.53-11.38,21.69-27.9,22.48-45.57Z"/>
      <path id="Path_159" data-name="Path 159" class="cls-2" d="m88.21,1417.19c.87-20.12,10.46-38.87,26.27-51.35L1740.15,79.1c14.44-11.49,32.88-16.73,51.21-14.57,18.34,2.05,35.1,11.35,46.56,25.81l1290.52,1621.67c23.83,29.93,18.89,73.5-11.04,97.33-.07.05-.14.11-.2.16l-1625.7,1286.73c-30.02,23.78-73.89,18.73-97.74-11.24L103.22,1463.34c-10.4-13.08-15.73-29.47-15.01-46.16Zm3046.83,340.6c.63-14.67-4.05-29.07-13.19-40.55L1831.32,95.56c-10.07-12.72-24.81-20.89-40.93-22.69-16.11-1.9-32.31,2.71-45,12.81L119.7,1372.41c-13.89,10.99-22.31,27.47-23.08,45.16-.62,14.66,4.07,29.06,13.2,40.55l1290.5,1621.67c20.98,26.36,59.53,30.79,85.96,9.87l1625.67-1286.71c13.9-10.99,22.32-27.47,23.09-45.17Z"/>
      <path id="Path_160" data-name="Path 160" class="cls-2" d="m73.7,1315.77c.85-20.26,10.82-39.05,27.13-51.12L1712.7,66.92c29.85-22.19,72.25-16,94.5,13.78l1201.31,1607.9c22.23,29.73,16.15,71.85-13.58,94.08-.07.06-.15.11-.22.17l-1611.88,1197.75c-29.86,22.18-72.25,15.99-94.5-13.77L87.01,1358.91c-9.26-12.42-13.96-27.66-13.32-43.14Zm2939.73,415.58c.57-13.55-3.54-26.89-11.66-37.76L1800.45,85.71c-19.48-26.07-56.59-31.49-82.74-12.07L105.85,1271.41c-14.28,10.55-23.01,26.99-23.76,44.73-.56,13.56,3.56,26.89,11.66,37.77l1201.33,1607.9c19.47,26.06,56.58,31.47,82.71,12.06l1611.9-1197.76c14.27-10.56,22.99-27.01,23.73-44.75Z"/>
      <path id="Path_161" data-name="Path 161" class="cls-2" d="m59.13,1214.35c.82-20.42,11.21-39.26,28.05-50.84L1685.25,54.71c29.67-20.57,70.59-13.25,91.22,16.33l1112.12,1594.13c20.62,29.57,13.37,70.25-16.2,90.87-.05.03-.1.07-.15.1l-1598.11,1108.8c-29.66,20.58-70.58,13.24-91.22-16.33L70.8,1254.48c-8.23-11.71-12.34-25.83-11.68-40.14Zm2832.75,490.59c.57-12.46-3.01-24.76-10.17-34.97L1769.58,75.84c-17.99-25.79-53.66-32.18-79.52-14.24L91.97,1170.4c-14.67,10.1-23.73,26.52-24.44,44.31-.57,12.46,3.02,24.76,10.19,34.96l1112.11,1594.15c17.98,25.8,53.65,32.18,79.52,14.24l1598.1-1108.8c14.67-10.1,23.73-26.52,24.44-44.32Z"/>
      <path id="Path_162" data-name="Path 162" class="cls-2" d="m44.48,1112.93c.92-20.57,11.75-39.42,29.06-50.57L1657.83,42.52c29.46-18.97,68.91-10.48,87.94,18.9l1022.91,1580.35c7.17,11.01,10.71,23.99,10.12,37.11-.91,20.57-11.74,39.43-29.06,50.57l-1584.29,1019.84c-29.46,18.96-68.91,10.48-87.93-18.9L54.58,1150.06c-7.16-11.02-10.69-24-10.11-37.13Zm2725.92,565.59c.52-11.39-2.55-22.65-8.78-32.2L1738.71,65.96c-16.51-25.49-50.74-32.85-76.32-16.4L78.1,1069.39c-15.02,9.69-24.42,26.05-25.22,43.91-.51,11.38,2.57,22.64,8.79,32.19l1022.91,1580.38c16.51,25.48,50.73,32.84,76.31,16.38l1584.31-1019.83c15.01-9.69,24.41-26.04,25.21-43.89Z"/>
      <path id="Path_163" data-name="Path 163" class="cls-2" d="m29.76,1011.5c.87-20.8,12.22-39.73,30.15-50.31L1630.41,30.31c29.28-17.35,67.25-7.7,84.64,21.49l933.72,1566.57c17.39,29.15,7.86,66.89-21.29,84.28-.08.05-.16.09-.24.14l-1570.51,930.88c-29.27,17.34-67.24,7.7-84.64-21.49L38.37,1045.61c-6.14-10.28-9.14-22.14-8.61-34.11Zm2619.23,640.59c.45-10.33-2.14-20.56-7.44-29.43L1707.84,56.08c-15.04-25.21-47.84-33.54-73.12-18.56L64.22,968.4c-15.49,9.14-25.3,25.5-26.06,43.47-.45,10.33,2.14,20.57,7.45,29.45l933.72,1566.58c15.04,25.22,47.83,33.55,73.11,18.55l1570.52-930.88c15.49-9.14,25.29-25.51,26.04-43.48Z"/>
      <path id="Path_164" data-name="Path 164" class="cls-2" d="m14.95,910.07c.98-21.01,12.86-39.99,31.34-50.03L1603.01,18.11c29.08-15.72,65.57-4.92,81.34,24.09l844.52,1552.79c15.77,28.97,5.06,65.24-23.91,81-.07.04-.14.08-.21.12l-1556.73,841.92c-29.08,15.72-65.56,4.92-81.34-24.09L22.17,941.15c-5.18-9.51-7.68-20.26-7.22-31.08Zm2512.71,715.63c.4-9.3-1.74-18.54-6.21-26.71L1676.95,46.19c-13.56-24.93-44.93-34.23-69.94-20.71L50.3,867.4c-15.98,8.55-26.24,24.92-26.94,43.03-.4,9.3,1.74,18.54,6.2,26.72l844.52,1552.8c13.56,24.93,44.93,34.23,69.94,20.7l1556.71-841.92c15.98-8.54,26.24-24.92,26.95-43.03Z"/>
      <path id="Path_165" data-name="Path 165" class="cls-2" d="m.05,808.62c.93-21.31,13.45-40.4,32.63-49.74L1575.61,5.91c28.88-14.09,63.88-2.12,78.02,26.69l755.33,1539.02c14.13,28.77,2.27,63.54-26.49,77.67-.09.04-.17.08-.26.13l-1542.93,752.95c-28.89,14.11-63.88,2.14-78.01-26.67L5.94,836.67c-4.27-8.71-6.3-18.36-5.88-28.05Zm2406.4,790.68c.34-8.29-1.4-16.54-5.07-23.99L1646.07,36.28c-12.09-24.65-42.04-34.9-66.75-22.84L36.38,766.41c-16.41,7.99-27.13,24.34-27.92,42.58-.35,8.3,1.38,16.55,5.04,24.01l755.32,1539.02c12.1,24.64,42.04,34.89,66.76,22.83l1542.93-752.95c16.41-8.01,27.13-24.35,27.94-42.6Z"/>
    </g>
  </g>
</svg>